<svg xmlns="http://www.w3.org/2000/svg" width="201" height="50.447" viewBox="0 0 201 50.447">
  <g id="グループ_7" data-name="グループ 7" transform="translate(-252.25 -657.564)">
    <path id="パス_1" data-name="パス 1" d="M254.74,660.734A1.188,1.188,0,0,1,253.52,662a1.245,1.245,0,1,1,0-2.489A1.174,1.174,0,0,1,254.74,660.734Zm-.508,8.992a36.92,36.92,0,0,0-.152,3.813v18.8a37.526,37.526,0,0,0,.152,3.811h-1.473a37.228,37.228,0,0,0,.152-3.811v-18.8a36.631,36.631,0,0,0-.152-3.813Z" transform="translate(0 0.032)" fill="#231815"/>
    <path id="パス_2" data-name="パス 2" d="M298.905,695.627c.1-1.3.152-2.354.152-3.807V679.389c0-6.364-2.337-9.271-7.419-9.271-5.233.051-8.79,3.659-8.79,8.922V691.82c0,1.452.051,2.506.152,3.807h-1.473c.1-1.3.152-2.354.152-3.807V679.389c0-6.364-2.337-9.271-7.419-9.271-5.233.051-8.79,3.659-8.79,8.922v12.829c0,1.455.051,2.506.152,3.759H264.15c.1-1.253.152-2.3.152-3.759V673.326c0-1.5-.051-2.508-.152-3.761h1.321v2.107a27.5,27.5,0,0,1-.2,3.759h.1a9.284,9.284,0,0,1,9.095-6.367c4.522,0,7.318,2.357,8.131,6.817,1.118-4.209,4.573-6.817,9.247-6.817,5.437,0,8.384,3.409,8.384,9.823V691.82c0,1.452.05,2.506.152,3.807Z" transform="translate(0.193 0.186)" fill="#231815"/>
    <g id="グループ_2" data-name="グループ 2" transform="translate(308.191 668.837)">
      <g id="グループ_1" data-name="グループ 1">
        <path id="パス_3" data-name="パス 3" d="M329.637,682.671c0,7.875-4.065,12.753-10.619,12.753-6.5,0-10.568-4.979-10.568-12.753,0-7.723,4.065-12.611,10.568-12.611C325.471,670.06,329.637,675,329.637,682.671Z" transform="translate(-307.281 -669.003)" fill="#efd3d8"/>
        <path id="パス_4" data-name="パス 4" d="M329.656,682.688c0-7.672-4.166-12.611-10.619-12.611-6.5,0-10.568,4.888-10.568,12.611,0,7.774,4.065,12.753,10.568,12.753C325.591,695.441,329.656,690.563,329.656,682.688Zm-10.365,24.439c6.5,0,10.365-3.658,10.365-9.806v-5.487c0-1.27.1-3.048.2-4.065-1.423,5.487-5.284,8.739-10.822,8.739-7.113,0-11.737-5.437-11.737-13.82,0-8.18,4.725-13.668,11.737-13.668,5.386,0,9.247,3.2,10.772,8.485-.1-1.179-.152-2.591-.152-3.76v-4.177h1.321a36.818,36.818,0,0,0-.152,3.821v23.931c0,6.707-4.471,10.873-11.534,10.873-3.2,0-5.589-.661-7.52-2.134a12.394,12.394,0,0,1-3.15-3.912l.965-.661a10.818,10.818,0,0,0,2.744,3.658C314.007,706.466,316.242,707.127,319.291,707.127Z" transform="translate(-307.3 -669.02)" fill="#231815"/>
      </g>
    </g>
    <path id="パス_5" data-name="パス 5" d="M360.406,691.773a16.789,16.789,0,0,1-1.932,1.754,13.079,13.079,0,0,1-8.079,2.605c-7.266,0-12.3-5.514-12.3-13.533,0-8.121,4.827-13.384,12.347-13.384a12.428,12.428,0,0,1,6.605,1.654A12.189,12.189,0,0,1,360,673.426l-.915.852a9.458,9.458,0,0,0-2.946-2.658,10.814,10.814,0,0,0-5.742-1.352c-6.808,0-11.127,4.762-11.127,12.33,0,7.519,4.42,12.483,11.127,12.483a11.975,11.975,0,0,0,7.062-2.056,10.3,10.3,0,0,0,2.134-2.056Z" transform="translate(1.389 0.188)" fill="#231815"/>
    <g id="グループ_4" data-name="グループ 4" transform="translate(366.621 669.062)">
      <g id="グループ_3" data-name="グループ 3">
        <path id="パス_6" data-name="パス 6" d="M387.29,682.822c0,7.723-4.116,12.6-10.67,12.6-6.5,0-10.67-5.03-10.67-12.7,0-7.723,4.116-12.6,10.67-12.6C383.124,670.12,387.29,675.15,387.29,682.822Z" transform="translate(-364.781 -669.043)" fill="#e1f3fa"/>
        <path id="パス_7" data-name="パス 7" d="M376.639,695.44c6.554,0,10.67-4.878,10.67-12.6,0-7.672-4.166-12.7-10.67-12.7-6.554,0-10.67,4.878-10.67,12.6C365.969,690.41,370.135,695.44,376.639,695.44Zm11.839-12.6c0,8.282-4.674,13.668-11.839,13.668-7.062,0-11.839-5.589-11.839-13.769,0-8.282,4.674-13.678,11.839-13.678C383.7,669.06,388.477,674.659,388.477,682.839Z" transform="translate(-364.8 -669.06)" fill="#231815"/>
      </g>
    </g>
    <path id="パス_8" data-name="パス 8" d="M397.572,657.564a36.566,36.566,0,0,0-.153,3.811v31a37.186,37.186,0,0,0,.153,3.811H396.1a37.582,37.582,0,0,0,.151-3.811v-31a36.957,36.957,0,0,0-.151-3.811Z" transform="translate(2.328 0)" fill="#231815"/>
    <g id="グループ_6" data-name="グループ 6" transform="translate(408.031 669.062)">
      <g id="グループ_5" data-name="グループ 5">
        <path id="パス_9" data-name="パス 9" d="M428.04,682.822c0,7.723-4.116,12.6-10.67,12.6-6.5,0-10.67-5.03-10.67-12.7,0-7.723,4.116-12.6,10.67-12.6C423.873,670.12,428.04,675.15,428.04,682.822Z" transform="translate(-405.531 -669.043)" fill="#f1f6d6"/>
        <path id="パス_10" data-name="パス 10" d="M417.389,695.44c6.554,0,10.67-4.878,10.67-12.6,0-7.672-4.166-12.7-10.67-12.7-6.554,0-10.67,4.878-10.67,12.6C406.719,690.41,410.885,695.44,417.389,695.44Zm11.839-12.6c0,8.282-4.674,13.668-11.839,13.668-7.062,0-11.839-5.589-11.839-13.769,0-8.282,4.674-13.678,11.839-13.678C424.451,669.06,429.227,674.659,429.227,682.839Z" transform="translate(-405.55 -669.06)" fill="#231815"/>
      </g>
    </g>
    <path id="パス_11" data-name="パス 11" d="M437.467,675.981c1.372-4.109,4.776-6.866,8.791-6.866a9.231,9.231,0,0,1,4.014.752l-.408,1.1a9.671,9.671,0,0,0-3.963-.8c-3.962,0-7.367,3.307-8.282,8.018v13.681a36.222,36.222,0,0,0,.152,3.758H436.3a36.214,36.214,0,0,0,.152-3.758V673.326a35.635,35.635,0,0,0-.152-3.761h1.321v1.956a33.612,33.612,0,0,1-.254,4.459Z" transform="translate(2.978 0.187)" fill="#231815"/>
  </g>
</svg>
